<svg id="noun_trash_bin_4221981" data-name="noun_trash bin_4221981" xmlns="http://www.w3.org/2000/svg" width="31.242" height="37.49" viewBox="0 0 31.242 37.49">
  <path id="Path_4171" data-name="Path 4171" d="M6.232,13.5,8.4,36.222a2.505,2.505,0,0,0,2.494,2.268H27.351a2.505,2.505,0,0,0,2.494-2.268L32.01,13.5H6.232ZM19.121,23.539l-5.3-5.3A1.249,1.249,0,1,0,12.051,20l5.3,5.3-5.3,5.3a1.25,1.25,0,0,0,1.767,1.768l5.3-5.3,5.3,5.3a1.25,1.25,0,0,0,1.767-1.768l-5.3-5.3,5.3-5.3a1.249,1.249,0,0,0-1.767-1.767l-5.3,5.3ZM14.122,6H5.981A2.479,2.479,0,0,0,3.5,8.479V9.766a2.479,2.479,0,0,0,2.481,2.481h26.28a2.479,2.479,0,0,0,2.481-2.481V8.479A2.479,2.479,0,0,0,32.261,6H24.119V4.277A3.277,3.277,0,0,0,20.843,1H17.4a3.277,3.277,0,0,0-3.277,3.277V6Z" transform="translate(-3.5 -1)" fill="#fff" fill-rule="evenodd"/>
</svg>
