<svg xmlns="http://www.w3.org/2000/svg" width="18.697" height="16.042" viewBox="0 0 18.697 16.042">
  <g id="Group_3958" data-name="Group 3958" transform="translate(-962 -568.5)">
    <path id="Path_2263" data-name="Path 2263" d="M18.57,41.555a17.729,17.729,0,0,0-4.039-3.846l2.635-2.635a.668.668,0,0,0-.928-.961l-.016.016-2.879,2.876a8.635,8.635,0,0,0-3.994-1.068c-5.075,0-9.054,5.387-9.221,5.617a.668.668,0,0,0,0,.785,17.729,17.729,0,0,0,4.039,3.846L1.531,48.821a.668.668,0,0,0,.928.961l.016-.016,2.879-2.876a8.635,8.635,0,0,0,3.994,1.068c5.075,0,9.054-5.387,9.221-5.617A.668.668,0,0,0,18.57,41.555ZM5.137,45.217a16.626,16.626,0,0,1-3.619-3.269c.983-1.191,4.171-4.674,7.83-4.674a7.068,7.068,0,0,1,3,.735l-1.159,1.159a3.333,3.333,0,0,0-4.621,4.621Zm6.014-4.127a1.97,1.97,0,0,1,.2.858,2,2,0,0,1-2,2,1.97,1.97,0,0,1-.858-.2ZM7.546,42.806a1.97,1.97,0,0,1-.2-.858,2,2,0,0,1,2-2,1.97,1.97,0,0,1,.858.2Zm1.8,3.816a7.068,7.068,0,0,1-3-.735l1.159-1.159a3.333,3.333,0,0,0,4.621-4.621l1.429-1.429a16.628,16.628,0,0,1,3.619,3.269C16.2,43.138,13.008,46.622,9.349,46.622Z" transform="translate(962 534.574)" fill="#fff"/>
    <path id="Path_4416" data-name="Path 4416" d="M18.507,98.425c-.166-.228-4.131-5.59-9.194-5.59S.284,98.2.118,98.425a.618.618,0,0,0,0,.727c.166.228,4.131,5.59,9.194,5.59s9.028-5.362,9.194-5.59A.617.617,0,0,0,18.507,98.425ZM9.312,103.51c-3.73,0-6.96-3.559-7.916-4.722.955-1.164,4.179-4.721,7.916-4.721s6.96,3.558,7.916,4.722C16.274,99.953,13.05,103.51,9.312,103.51Z" transform="translate(962.031 477.728)" fill="#8a97c1"/>
    <path id="Path_4417" data-name="Path 4417" d="M157.956,154.725a3.289,3.289,0,1,0,3.234,3.288A3.265,3.265,0,0,0,157.956,154.725Zm0,5.48a2.192,2.192,0,1,1,2.156-2.192A2.177,2.177,0,0,1,157.956,160.205Z" transform="translate(813.387 418.502)" fill="#8a97c1"/>
  </g>
</svg>
